<svg width="33" height="33" viewBox="0 0 33 33" fill="none" xmlns="http://www.w3.org/2000/svg">
<path fill-rule="evenodd" clip-rule="evenodd" d="M16.5 0.665527C7.48582 0.665527 0.184723 7.96662 0.184723 16.9808C0.184723 24.2003 4.85497 30.2982 11.3403 32.46C12.1561 32.6027 12.462 32.1133 12.462 31.685C12.462 31.2975 12.4416 30.0127 12.4416 28.6463C8.34237 29.4008 7.28188 27.6469 6.95557 26.7292C6.77202 26.2601 5.97665 24.8122 5.28325 24.4247C4.71222 24.1188 3.89645 23.3642 5.26286 23.3438C6.54769 23.3234 7.46542 24.5266 7.77133 25.0161C9.23971 27.4838 11.585 26.7904 12.5232 26.3621C12.6659 25.3016 13.0942 24.5878 13.5633 24.1799C9.93311 23.7721 6.1398 22.3649 6.1398 16.1243C6.1398 14.35 6.77202 12.8816 7.81212 11.7395C7.64897 11.3316 7.07793 9.65933 7.97528 7.41598C7.97528 7.41598 9.34168 6.9877 12.462 9.0883C13.7672 8.7212 15.154 8.53766 16.5408 8.53766C17.9276 8.53766 19.3144 8.7212 20.6196 9.0883C23.7399 6.96731 25.1063 7.41598 25.1063 7.41598C26.0037 9.65933 25.4326 11.3316 25.2695 11.7395C26.3096 12.8816 26.9418 14.3296 26.9418 16.1243C26.9418 22.3853 23.1281 23.7721 19.498 24.1799C20.0894 24.6898 20.5992 25.6687 20.5992 27.1983C20.5992 29.3804 20.5788 31.1343 20.5788 31.685C20.5788 32.1133 20.8848 32.6231 21.7005 32.46C24.9394 31.3665 27.7538 29.2849 29.7477 26.5082C31.7416 23.7314 32.8144 20.3993 32.8153 16.9808C32.8153 7.96662 25.5142 0.665527 16.5 0.665527Z" fill="white"/>
</svg>
