<svg width="31" height="31" viewBox="0 0 31 31" fill="none" xmlns="http://www.w3.org/2000/svg">
<path d="M30.2621 3.05391V28.1027C30.2621 28.6754 30.0346 29.2246 29.6297 29.6296C29.2247 30.0346 28.6754 30.2621 28.1027 30.2621H3.05397C2.48127 30.2621 1.93202 30.0346 1.52706 29.6296C1.1221 29.2246 0.894592 28.6754 0.894592 28.1027L0.894592 3.05391C0.894592 2.48121 1.1221 1.93196 1.52706 1.527C1.93202 1.12204 2.48127 0.894531 3.05397 0.894531L28.1027 0.894531C28.6754 0.894531 29.2247 1.12204 29.6297 1.527C30.0346 1.93196 30.2621 2.48121 30.2621 3.05391ZM9.5321 12.1233H5.21335V25.9433H9.5321V12.1233ZM9.92079 7.37266C9.92306 7.04598 9.86097 6.72206 9.73806 6.41937C9.61514 6.11669 9.43381 5.84119 9.20442 5.60858C8.97503 5.37598 8.70206 5.19084 8.40112 5.06374C8.10017 4.93663 7.77714 4.87005 7.45046 4.86778H7.37272C6.70839 4.86778 6.07126 5.13169 5.60151 5.60145C5.13175 6.0712 4.86785 6.70833 4.86785 7.37266C4.86785 8.037 5.13175 8.67412 5.60151 9.14388C6.07126 9.61363 6.70839 9.87754 7.37272 9.87754C7.69942 9.88558 8.02451 9.82916 8.3294 9.71152C8.63429 9.59388 8.91301 9.41731 9.14964 9.19191C9.38627 8.96651 9.57617 8.6967 9.70849 8.39788C9.8408 8.09906 9.91294 7.77711 9.92079 7.4504V7.37266ZM25.9434 17.5476C25.9434 13.393 23.3003 11.7778 20.6745 11.7778C19.8147 11.7347 18.9587 11.9179 18.1919 12.3089C17.425 12.6999 16.774 13.2852 16.3039 14.0063H16.183V12.1233H12.1234V25.9433H16.4421V18.5928C16.3797 17.84 16.6168 17.0929 17.102 16.5139C17.5872 15.9349 18.2812 15.5708 19.0334 15.5006H19.1975C20.5708 15.5006 21.5901 16.3643 21.5901 18.541V25.9433H25.9088L25.9434 17.5476Z" fill="white"/>
</svg>
